<svg width="26" height="26" viewBox="0 0 26 26" fill="none" xmlns="http://www.w3.org/2000/svg">
<circle cx="13" cy="13" r="12.5" fill="#00EFD1"/>
<path d="M13.4374 12.1031C13.365 12.0968 13.2781 12.0968 13.1984 12.1031C11.4745 12.0526 10.1055 10.8208 10.1055 9.30471C10.1055 7.75707 11.5397 6.5 13.3215 6.5C15.0962 6.5 16.5376 7.75707 16.5376 9.30471C16.5304 10.8208 15.1614 12.0526 13.4374 12.1031Z" fill="white" stroke="white" stroke-width="1.5" stroke-linecap="round" stroke-linejoin="round"/>
<path d="M9.81468 14.4334C8.06177 15.4567 8.06177 17.1244 9.81468 18.1414C11.8066 19.3037 15.0734 19.3037 17.0653 18.1414C18.8182 17.1181 18.8182 15.4504 17.0653 14.4334C15.0806 13.2774 11.8139 13.2774 9.81468 14.4334Z" fill="white" stroke="white" stroke-width="1.5" stroke-linecap="round" stroke-linejoin="round"/>
</svg>
